<?xml version="1.0" standalone="no"?>
<!DOCTYPE svg PUBLIC "-//W3C//DTD SVG 20010904//EN"
 "http://www.w3.org/TR/2001/REC-SVG-20010904/DTD/svg10.dtd">
<svg version="1.0" xmlns="http://www.w3.org/2000/svg"
 width="200.000000pt" height="269.000000pt" viewBox="0 0 200.000000 269.000000"
 preserveAspectRatio="xMidYMid meet">

<g transform="translate(0.000000,269.000000) scale(0.100000,-0.100000)"
fill="#000000" stroke="none">
<path d="M865 2669 c-370 -48 -693 -321 -806 -681 -77 -246 -56 -515 59 -743
49 -100 85 -149 171 -239 123 -127 251 -207 416 -259 350 -110 729 -18 992
241 120 118 216 284 260 451 22 81 26 118 27 241 0 87 -5 169 -13 205 -30 136
-90 274 -166 380 -49 69 -179 197 -245 242 -199 135 -449 193 -695 162z m546
-282 c79 -52 87 -141 19 -209 -33 -34 -43 -38 -86 -38 -61 0 -105 25 -127 73
-22 45 -21 84 1 125 38 71 127 94 193 49z m-271 -131 c8 -4 25 -29 36 -56 33
-72 86 -105 176 -105 l68 0 35 -44 c62 -78 125 -233 125 -308 0 -22 -2 -23
-99 -23 l-99 0 -7 39 c-11 64 -60 153 -111 203 -96 93 -242 130 -366 94 -31
-9 -58 -16 -61 -16 -9 0 -97 162 -92 170 5 9 111 45 155 54 33 6 221 0 240 -8z
m-405 -167 l46 -81 -51 -54 c-28 -30 -63 -80 -78 -111 -23 -50 -27 -71 -27
-153 0 -83 4 -103 28 -155 15 -33 51 -83 79 -112 l51 -51 -48 -81 c-26 -45
-53 -81 -60 -81 -8 0 -43 28 -78 63 -63 63 -124 157 -147 229 -10 34 -9 40 14
70 24 32 48 109 41 132 -2 6 -6 23 -9 38 -3 14 -18 40 -32 58 -25 29 -26 33
-14 76 15 52 66 140 111 192 37 42 107 102 119 102 5 0 29 -36 55 -81z m-362
-273 c18 -7 45 -28 60 -45 52 -62 27 -170 -47 -205 -43 -20 -65 -20 -116 0
-80 32 -108 140 -53 205 27 32 74 58 106 59 10 0 32 -6 50 -14z m1207 -178
c-1 -83 -53 -214 -121 -305 l-40 -53 -67 0 c-91 0 -137 -26 -172 -97 -14 -28
-32 -55 -40 -58 -8 -4 -54 -9 -102 -12 -95 -6 -183 7 -255 38 l-45 19 42 78
c23 42 46 81 50 85 4 5 31 1 61 -7 213 -64 429 63 481 282 l13 52 97 0 c95 0
98 -1 98 -22z m-150 -433 c64 -61 61 -145 -5 -204 -65 -57 -172 -35 -208 42
-32 66 -12 137 48 178 45 30 125 22 165 -16z"/>
<path d="M597 703 c-4 -3 -7 -73 -7 -154 0 -167 -4 -159 87 -159 47 0 59 4 84
29 24 24 29 38 29 76 0 51 -20 99 -45 109 -9 3 -34 6 -56 6 l-39 0 0 50 c0 46
-2 50 -23 50 -13 0 -27 -3 -30 -7z m127 -159 c10 -26 7 -79 -6 -92 -7 -7 -25
-12 -40 -12 -28 0 -28 1 -28 60 l0 60 34 0 c22 0 36 -6 40 -16z"/>
<path d="M290 580 c0 -155 22 -190 119 -190 42 0 56 5 83 29 l33 29 3 116 4
116 -36 0 -36 0 0 -108 c0 -117 -6 -132 -51 -132 -46 0 -59 31 -59 142 l0 98
-30 0 -30 0 0 -100z"/>
<path d="M1342 544 c4 -146 10 -157 88 -152 37 3 45 6 45 23 0 15 -8 21 -35
25 -35 5 -35 5 -38 63 l-3 57 36 0 c31 0 35 3 35 25 0 22 -4 25 -35 25 -32 0
-35 2 -35 30 0 27 -3 30 -31 30 l-31 0 4 -126z"/>
<path d="M850 525 c0 -78 2 -88 25 -110 20 -21 34 -25 79 -25 88 0 86 -2 86
116 l0 104 -30 0 -30 0 0 -86 0 -85 -32 3 -33 3 -3 83 -3 82 -29 0 -30 0 0
-85z"/>
<path d="M1097 603 c-4 -3 -7 -53 -7 -110 l0 -103 30 0 30 0 0 85 0 85 29 0
c36 0 41 -13 41 -101 l0 -69 31 0 31 0 -4 91 c-4 114 -17 129 -112 129 -35 0
-66 -3 -69 -7z"/>
<path d="M1530 525 c0 -78 2 -88 25 -110 20 -21 34 -25 79 -25 88 0 86 -2 86
116 l0 104 -30 0 -30 0 0 -86 0 -85 -32 3 -33 3 -3 83 -3 82 -29 0 -30 0 0
-85z"/>
<path d="M427 330 c-40 -12 -55 -27 -62 -61 -10 -43 16 -75 81 -104 46 -21 55
-28 52 -47 -3 -21 -8 -23 -65 -22 -53 1 -64 -2 -69 -18 -8 -27 -1 -31 66 -36
77 -6 116 10 130 53 17 52 0 81 -67 113 -43 20 -59 33 -61 51 -4 23 -2 23 52
19 31 -3 56 -1 56 3 0 4 3 14 6 22 4 11 -5 19 -33 26 -43 12 -48 12 -86 1z"/>
<path d="M680 256 c-63 -20 -89 -110 -50 -173 22 -37 46 -46 116 -41 42 3 49
6 52 26 3 21 0 22 -52 22 -45 0 -57 4 -66 20 -10 19 -8 20 59 20 47 0 71 4 74
13 6 19 -10 78 -25 94 -23 23 -71 31 -108 19z m64 -52 c26 -25 19 -34 -29 -34
-49 0 -53 4 -28 32 20 22 37 23 57 2z"/>
<path d="M1340 256 c-63 -20 -89 -110 -50 -173 22 -37 46 -46 116 -41 42 3 49
6 52 26 3 21 0 22 -52 22 -45 0 -57 4 -66 20 -10 19 -8 20 59 20 47 0 71 4 74
13 6 19 -10 78 -25 94 -23 23 -71 31 -108 19z m64 -52 c26 -25 19 -34 -29 -34
-49 0 -53 4 -28 32 20 22 37 23 57 2z"/>
<path d="M878 253 c-16 -4 -18 -18 -18 -109 l0 -104 30 0 30 0 0 85 0 85 34 0
c32 0 46 13 46 41 0 9 -90 11 -122 2z"/>
<path d="M1030 248 c0 -7 17 -56 38 -108 36 -90 39 -95 67 -95 28 0 32 5 62
80 17 44 35 92 38 108 7 25 5 27 -22 27 -28 0 -31 -4 -48 -65 -9 -36 -21 -68
-26 -70 -4 -3 -18 26 -30 65 -20 66 -23 70 -50 70 -17 0 -29 -5 -29 -12z"/>
<path d="M1538 253 c-16 -4 -18 -18 -18 -109 l0 -104 30 0 30 0 0 85 0 85 34
0 c32 0 46 13 46 41 0 9 -90 11 -122 2z"/>
</g>
</svg>
